<?xml version="1.0" encoding="UTF-8"?>
<svg id="_레이어_1" data-name="레이어_1" xmlns="http://www.w3.org/2000/svg" version="1.1" viewBox="0 0 2160 2160">
  <!-- Generator: Adobe Illustrator 29.8.1, SVG Export Plug-In . SVG Version: 2.1.1 Build 2)  -->
  <defs>
    <style>
      .st0 {
        fill: #231815;
        stroke: #231815;
        stroke-miterlimit: 10;
        stroke-width: 4px;
      }
    </style>
  </defs>
  <path class="st0" d="M1578.9839428,1111.9412719c4.1014168-64.5038085-4.2272098-128.4349841-24.7545911-190.017785-20.5279778-61.5830992-52.2235322-117.7250391-94.2069932-166.8671996-43.4746793-50.8868843-96.1179561-91.9886935-156.468735-122.1640504-60.3504807-30.1752078-124.8182075-47.6288371-191.6122279-51.8762431-64.5038085-4.1014168-128.4349841,4.2272098-190.0179342,24.7548894-61.5829501,20.5276796-117.7250391,52.2235322-166.8671996,94.2069932-50.8867352,43.474381-91.9886935,96.1179561-122.1639013,156.4684368-30.1753569,60.350779-47.6288371,124.8182075-51.8763922,191.6125262-4.1014168,64.5038085,4.2273589,128.4346858,24.7548894,190.0179342,20.5278287,61.5826518,52.2236813,117.7247409,94.2071423,166.8669013,43.474381,50.8867352,96.1179561,91.9886935,156.4684368,122.1639013,60.350779,30.1753569,124.8182075,47.6288371,191.6125262,51.8763922,64.5038085,4.1014168,128.4346858-4.2273589,190.017785-24.7545911,61.582801-20.528127,117.7247409-52.2236813,166.8669013-94.2071423,50.8868843-43.4746793,91.9886935-96.1179561,122.1640504-156.468735,30.1752078-60.3504807,47.6288371-124.8182075,51.8762431-191.6122279ZM999.7572019,1503.1311224l-103.2192652-309.6579089,258.0481455-.0001861-154.8288802,309.658095ZM1089.3178804,855.6076789l281.0407219-93.6801581-187.3601537,374.7207122-93.6805682-281.0405541ZM1284.0079541,671.9836179c27.1693926,13.5846816,52.3859809,29.5390205,75.5382963,47.4779099l-284.0492901,94.6834505-61.7734302-185.319651c89.3750164-13.258118,183.5157517-.2259987,270.284424,43.1582905ZM970.5033528,637.3745706l170.7975281,512.3929648-259.3314873.0000189-129.2118168-387.6355444c60.0860481-61.7778684,135.9690749-104.4642263,217.7457759-124.7574393ZM719.4618751,800.4534253l116.4384037,349.3140557-206.550738.0000147c-14.1240685-90.4110954-1.315185-185.8766468,42.6342006-273.7755131,13.5847562-27.1695417,29.5391324-52.3861114,47.4781336-75.5385573ZM638.3765332,1193.4734369l212.0923632-.0001662,108.8293447,326.4870045c-28.242843-7.7585689-56.136444-18.3592493-83.3061348-31.9440801-122.7701008-61.3849841-205.7936834-171.0297918-237.615573-294.5427582Z"/>
</svg>